<?xml version="1.0" encoding="UTF-8"?>
<svg version="1.1" xmlns="http://www.w3.org/2000/svg" width="128" height="128">
<path d="M0 0 C0.92597488 -0.00861557 1.85194977 -0.01723114 2.8059845 -0.02610779 C5.85670187 -0.04874826 8.90649918 -0.0420321 11.95727539 -0.03295898 C14.08427706 -0.03819556 16.2112764 -0.04447217 18.33827209 -0.05174255 C22.7926833 -0.06214336 27.24677499 -0.05758993 31.70117188 -0.04296875 C37.40210413 -0.02578532 43.10202811 -0.04927305 48.80284786 -0.08445835 C53.19444932 -0.1064469 57.58581009 -0.10498721 61.97744942 -0.09669304 C64.0789456 -0.09587425 66.18045958 -0.10272369 68.28190422 -0.11746407 C71.22371783 -0.13493564 74.16372685 -0.12034509 77.10546875 -0.09765625 C77.96854645 -0.10934845 78.83162415 -0.12104065 79.72085571 -0.13308716 C85.6859293 -0.03975115 89.32688537 1.34305104 93.61743164 5.53344727 C97.99865431 10.5051978 98.20304225 14.57477511 98.16674805 20.90014648 C98.17696991 21.82451508 98.18719177 22.74888367 98.19772339 23.70126343 C98.22545004 26.74715305 98.22360711 29.79213419 98.21899414 32.83813477 C98.22677202 34.96274144 98.23544218 37.08734501 98.2449646 39.21194458 C98.25987514 43.66215094 98.2593171 48.11203994 98.2487793 52.56225586 C98.23719491 58.25425394 98.27104352 63.94494934 98.31746864 69.6367321 C98.34699031 74.02409409 98.34868046 78.41114408 98.34244919 82.7985878 C98.34347339 84.89648136 98.35390739 86.9943929 98.37407303 89.09218979 C98.39886102 92.03163018 98.38519038 94.96855625 98.36206055 97.90795898 C98.38499176 99.19718262 98.38499176 99.19718262 98.40838623 100.51245117 C98.31211535 106.07162818 97.04114708 109.56303977 93.42311668 113.82699013 C87.82807078 119.11457118 82.04504886 120.12661406 74.57446289 120.05102539 C73.70832367 120.05803467 72.84218445 120.06504395 71.94979858 120.07226562 C69.10950903 120.08975575 66.27022991 120.07825502 63.42993164 120.06469727 C61.4427064 120.06739476 59.45548246 120.07127933 57.46826172 120.07629395 C53.31245299 120.08217683 49.1569892 120.07366501 45.0012207 120.05493164 C39.68840575 120.03214296 34.37639922 120.04527252 29.06361389 120.0692215 C24.96278857 120.08371215 20.86215323 120.0790585 16.76132202 120.06871033 C14.80300805 120.06605207 12.84467653 120.06928091 10.88638306 120.07862854 C8.14392756 120.08884809 5.40276053 120.07321808 2.66040039 120.05102539 C1.86016449 120.05912231 1.05992859 120.06721924 0.23544312 120.07556152 C-6.33412321 119.97763749 -11.35085442 118.40038176 -16.1876955 113.82643223 C-20.51369488 108.72563813 -21.247699 104.46820503 -21.14306641 97.92382812 C-21.15197403 96.99756119 -21.16088165 96.07129425 -21.1700592 95.11695862 C-21.1912473 92.07667088 -21.1690879 89.03852477 -21.14428711 85.99829102 C-21.14579067 83.8741484 -21.14922348 81.75000636 -21.15449524 79.62586975 C-21.15881913 75.18324049 -21.14204371 70.74133901 -21.10986328 66.29882812 C-21.07005933 60.61358135 -21.07939739 54.92969693 -21.10409832 49.2444067 C-21.11830094 44.86134229 -21.10817946 40.47859448 -21.09058571 36.09555244 C-21.08474953 33.99965738 -21.08601807 31.90372974 -21.09461021 29.80784416 C-21.1026292 26.87572422 -21.0782898 23.94558151 -21.04541016 21.01367188 C-21.05396027 20.15373627 -21.06251038 19.29380066 -21.07131958 18.4078064 C-20.95655163 12.4582019 -19.55824043 8.81577372 -15.38256836 4.53344727 C-10.40530153 0.14395688 -6.33290017 -0.0477721 0 0 Z " fill="#AF783D" transform="translate(25.382568359375,3.466552734375)"/>
<path d="M0 0 C0 27.72 0 55.44 0 84 C-1.485 84.495 -1.485 84.495 -3 85 C7.5707478 84.93871009 18.14125031 84.86154697 28.71173191 84.76428509 C33.62038586 84.71961445 38.52895744 84.68035099 43.43774414 84.65356445 C48.17764583 84.62749855 52.91723001 84.5870728 57.65693474 84.53681374 C59.4625242 84.52016726 61.26816856 84.50863918 63.07382393 84.50238609 C65.60887834 84.49272079 68.1431245 84.46463312 70.67797852 84.43237305 C71.79036896 84.43452568 71.79036896 84.43452568 72.92523193 84.4367218 C78.0578093 84.34473417 81.51519418 83.32258451 86 81 C87.98298681 78.95545075 87.98298681 78.95545075 89.3125 76.5625 C89.78300781 75.80066406 90.25351563 75.03882812 90.73828125 74.25390625 C91.89040427 72.19577936 92.97053204 70.12176731 94 68 C95.64264361 71.28528721 95.63914712 74.46297226 95 78 C91.9079538 84.32100958 87.44135407 87.5093594 81 90 C78.21228652 90.51016884 75.51994086 90.53628204 72.69140625 90.49829102 C71.50924026 90.50656921 71.50924026 90.50656921 70.30319214 90.51501465 C68.60635865 90.52428025 66.90945559 90.52448518 65.21261597 90.51642036 C62.52103287 90.50371044 59.83046331 90.5151525 57.13891602 90.53245544 C52.39418485 90.55907947 47.649705 90.56475408 42.90490723 90.56335449 C35.31193895 90.56112098 27.71928157 90.57539284 20.12643433 90.61894035 C17.48524377 90.6287293 14.84454902 90.620088 12.20336914 90.61024475 C10.57177411 90.61639291 8.94018173 90.62330595 7.30859375 90.63110352 C6.58316376 90.62338425 5.85773376 90.61566498 5.11032104 90.60771179 C-0.16595626 90.65943018 -4.14174788 91.93853547 -9 94 C-9 94.99 -9 95.98 -9 97 C-8.67 96.525625 -8.34 96.05125 -8 95.5625 C-4.90186733 93.14208385 -1.87973208 93.31801083 2 93 C2 92.67 2 92.34 2 92 C2.9513382 92.00444122 3.90267639 92.00888245 4.88284302 92.01345825 C13.85780688 92.05403984 22.83275207 92.08400146 31.80778694 92.10362434 C36.42170162 92.11405186 41.03554209 92.12819226 45.64941406 92.15087891 C50.10385745 92.17264403 54.55822955 92.18457639 59.01272202 92.18975449 C60.71033729 92.19344365 62.40794875 92.20064767 64.1055336 92.21146011 C66.48727026 92.22602384 68.86871411 92.22797591 71.25048828 92.22705078 C71.94892349 92.23424133 72.6473587 92.24143188 73.36695862 92.24884033 C77.63227136 92.23096795 81.02504916 91.51142734 85 90 C86.66088045 89.63893903 88.32618981 89.29537827 90 89 C89.61006749 94.45905517 87.79523957 97.11850498 84 101 C78.49580209 104.89321315 73.7124816 105.1541825 67.11035156 105.20532227 C66.31972824 105.21522186 65.52910492 105.22512146 64.71452332 105.23532104 C62.10658746 105.26685661 59.4986334 105.29166201 56.890625 105.31640625 C55.08029716 105.33698264 53.26997405 105.35797929 51.45965576 105.37937927 C46.69874914 105.4345292 41.93779966 105.48396967 37.17681885 105.53222656 C32.31705926 105.5824933 27.45736178 105.63815236 22.59765625 105.69335938 C13.06515724 105.80085436 3.53260427 105.90231853 -6 106 C-5.34 106.66 -4.68 107.32 -4 108 C-4.66 108 -5.32 108 -6 108 C-6 108.99 -6 109.98 -6 111 C-8.80828805 110.91740329 -10.52400492 110.44224482 -12.59765625 108.515625 C-17.73635903 102.60674809 -19.2996519 98.62301072 -19.25878906 90.69897461 C-19.2622937 89.86440231 -19.26579834 89.02983002 -19.26940918 88.16996765 C-19.27820486 85.41400818 -19.27238551 82.65830579 -19.265625 79.90234375 C-19.26697214 77.98710582 -19.26891309 76.07186823 -19.27142334 74.15663147 C-19.27437156 70.14434552 -19.27008615 66.13214865 -19.26074219 62.11987305 C-19.24934015 56.97256613 -19.2559138 51.8254676 -19.26788712 46.6781683 C-19.27510727 42.72427291 -19.2728172 38.77042709 -19.26763153 34.81653023 C-19.26629587 32.9182794 -19.26793985 31.02002409 -19.27259064 29.12177849 C-19.27765924 26.47160759 -19.2699413 23.8217764 -19.25878906 21.17163086 C-19.26283752 20.38453735 -19.26688599 19.59744385 -19.27105713 18.78649902 C-19.23031856 13.57134354 -18.30331995 11.41192994 -14.75 7.5625 C-10.41071316 3.51907362 -6.19105564 0 0 0 Z " fill="#84562A" transform="translate(26,6)"/>
<path d="M0 0 C0.92597488 -0.00861557 1.85194977 -0.01723114 2.8059845 -0.02610779 C5.85670187 -0.04874826 8.90649918 -0.0420321 11.95727539 -0.03295898 C14.08427706 -0.03819556 16.2112764 -0.04447217 18.33827209 -0.05174255 C22.7926833 -0.06214336 27.24677499 -0.05758993 31.70117188 -0.04296875 C37.40210413 -0.02578532 43.10202811 -0.04927305 48.80284786 -0.08445835 C53.19444932 -0.1064469 57.58581009 -0.10498721 61.97744942 -0.09669304 C64.0789456 -0.09587425 66.18045958 -0.10272369 68.28190422 -0.11746407 C71.22371783 -0.13493564 74.16372685 -0.12034509 77.10546875 -0.09765625 C77.96854645 -0.10934845 78.83162415 -0.12104065 79.72085571 -0.13308716 C85.6859293 -0.03975115 89.32688537 1.34305104 93.61743164 5.53344727 C97.99865431 10.5051978 98.20304225 14.57477511 98.16674805 20.90014648 C98.17696991 21.82451508 98.18719177 22.74888367 98.19772339 23.70126343 C98.22545004 26.74715305 98.22360711 29.79213419 98.21899414 32.83813477 C98.22677202 34.96274144 98.23544218 37.08734501 98.2449646 39.21194458 C98.25987514 43.66215094 98.2593171 48.11203994 98.2487793 52.56225586 C98.23719491 58.25425394 98.27104352 63.94494934 98.31746864 69.6367321 C98.34699031 74.02409409 98.34868046 78.41114408 98.34244919 82.7985878 C98.34347339 84.89648136 98.35390739 86.9943929 98.37407303 89.09218979 C98.39886102 92.03163018 98.38519038 94.96855625 98.36206055 97.90795898 C98.38499176 99.19718262 98.38499176 99.19718262 98.40838623 100.51245117 C98.31211535 106.07162818 97.04114708 109.56303977 93.42311668 113.82699013 C87.82807078 119.11457118 82.04504886 120.12661406 74.57446289 120.05102539 C73.70832367 120.05803467 72.84218445 120.06504395 71.94979858 120.07226562 C69.10950903 120.08975575 66.27022991 120.07825502 63.42993164 120.06469727 C61.4427064 120.06739476 59.45548246 120.07127933 57.46826172 120.07629395 C53.31245299 120.08217683 49.1569892 120.07366501 45.0012207 120.05493164 C39.68840575 120.03214296 34.37639922 120.04527252 29.06361389 120.0692215 C24.96278857 120.08371215 20.86215323 120.0790585 16.76132202 120.06871033 C14.80300805 120.06605207 12.84467653 120.06928091 10.88638306 120.07862854 C8.14392756 120.08884809 5.40276053 120.07321808 2.66040039 120.05102539 C1.86016449 120.05912231 1.05992859 120.06721924 0.23544312 120.07556152 C-6.33412321 119.97763749 -11.35085442 118.40038176 -16.1876955 113.82643223 C-20.51369488 108.72563813 -21.247699 104.46820503 -21.14306641 97.92382812 C-21.15197403 96.99756119 -21.16088165 96.07129425 -21.1700592 95.11695862 C-21.1912473 92.07667088 -21.1690879 89.03852477 -21.14428711 85.99829102 C-21.14579067 83.8741484 -21.14922348 81.75000636 -21.15449524 79.62586975 C-21.15881913 75.18324049 -21.14204371 70.74133901 -21.10986328 66.29882812 C-21.07005933 60.61358135 -21.07939739 54.92969693 -21.10409832 49.2444067 C-21.11830094 44.86134229 -21.10817946 40.47859448 -21.09058571 36.09555244 C-21.08474953 33.99965738 -21.08601807 31.90372974 -21.09461021 29.80784416 C-21.1026292 26.87572422 -21.0782898 23.94558151 -21.04541016 21.01367188 C-21.05396027 20.15373627 -21.06251038 19.29380066 -21.07131958 18.4078064 C-20.95655163 12.4582019 -19.55824043 8.81577372 -15.38256836 4.53344727 C-10.40530153 0.14395688 -6.33290017 -0.0477721 0 0 Z M-17.38256836 12.53344727 C-18.62664301 16.26567121 -18.55422159 19.75256252 -18.57543945 23.64160156 C-18.58361694 24.46799637 -18.59179443 25.29439117 -18.60021973 26.14582825 C-18.62504838 28.88310018 -18.64158493 31.62032027 -18.65600586 34.35766602 C-18.66132954 35.29372995 -18.66665321 36.22979389 -18.67213821 37.1942234 C-18.69886119 42.15063279 -18.71823721 47.10701709 -18.73266602 52.06347656 C-18.7459959 56.15973284 -18.77383216 60.25548986 -18.81469727 64.3515625 C-18.86408709 69.30231124 -18.88879509 74.25260771 -18.8958931 79.2035923 C-18.90259444 81.08659615 -18.91778737 82.96959036 -18.94178391 84.85245323 C-18.9735351 87.49493897 -18.97345744 90.13569255 -18.96606445 92.77832031 C-18.98246979 93.54900848 -18.99887512 94.31969666 -19.01577759 95.11373901 C-18.94852054 101.0182316 -17.02048497 104.91939103 -13.38256836 109.53344727 C-9.95087628 112.93332909 -9.95087628 112.93332909 -5.38256836 113.53344727 C-5.38256836 112.54344727 -5.38256836 111.55344727 -5.38256836 110.53344727 C-4.39256836 110.03844727 -4.39256836 110.03844727 -3.38256836 109.53344727 C-4.04256836 109.20344727 -4.70256836 108.87344727 -5.38256836 108.53344727 C-4.38333847 108.52758102 -3.38410858 108.52171478 -2.354599 108.51567078 C7.07642569 108.45838103 16.50722119 108.38558673 25.93801212 108.29773235 C30.7861317 108.25306381 35.63416792 108.21379991 40.48242188 108.18701172 C45.16397095 108.1609437 49.84519867 108.12051649 54.52654839 108.070261 C56.30980866 108.05361595 58.0931245 108.04208699 59.87645149 108.03583336 C62.38037686 108.02616647 64.88348447 107.99807706 67.38720703 107.96582031 C68.11944992 107.9672554 68.85169281 107.96869049 69.60612488 107.97016907 C77.50857386 107.82681477 82.994698 104.89465841 88.61743164 99.53344727 C90.13037452 97.59747695 90.13037452 97.59747695 90.61743164 95.53344727 C90.32321726 94.19093962 89.99391075 92.85524618 89.61743164 91.53344727 C87.82305664 91.99750977 87.82305664 91.99750977 85.99243164 92.47094727 C80.03437079 94.01182507 74.39702407 94.65763341 68.23510742 94.64697266 C67.16577721 94.6471917 67.16577721 94.6471917 66.07484436 94.64741516 C63.73744579 94.64672299 61.40012865 94.63896339 59.06274414 94.63110352 C57.43464196 94.62923686 55.80653922 94.62781413 54.17843628 94.6268158 C49.90741405 94.62301009 45.63642619 94.61319653 41.36541748 94.60211182 C37.00151026 94.59185575 32.63759745 94.5873092 28.27368164 94.58227539 C19.72158259 94.57157241 11.1695114 94.5545195 2.61743164 94.53344727 C2.61743164 94.86344727 2.61743164 95.19344727 2.61743164 95.53344727 C1.91875977 95.61981445 1.22008789 95.70618164 0.50024414 95.79516602 C-2.22225699 96.21549551 -4.76453044 96.67088179 -7.38256836 97.53344727 C-9.1382484 99.99093125 -9.1382484 99.99093125 -9.38256836 102.53344727 C-9.38256836 99.72094727 -9.38256836 99.72094727 -8.38256836 96.53344727 C-2.80836404 93.89649776 1.82156414 93.09959348 7.92602539 93.16455078 C8.71413605 93.1607843 9.5022467 93.15701782 10.3142395 93.15313721 C12.01108618 93.14674317 13.70796873 93.14699835 15.40481567 93.15332222 C18.09628988 93.16249446 20.78707661 93.15213979 23.47851562 93.13670349 C31.12539716 93.0967691 38.7722209 93.0954006 46.41918945 93.09765625 C51.10995064 93.09770749 55.80033856 93.07847716 60.49099731 93.04832268 C63.13226948 93.03754795 65.77281424 93.04959561 68.4140625 93.06214905 C70.04566146 93.05323967 71.67725461 93.04316355 73.30883789 93.03173828 C74.03426788 93.04148178 74.75969788 93.05122528 75.5071106 93.06126404 C81.85382364 92.97309336 86.71070463 90.81296614 91.68563843 86.91151428 C96.88021306 80.51957699 96.45808651 73.68546203 96.34399414 65.77954102 C96.34295482 64.35042829 96.34399842 62.92131268 96.34701538 61.49220276 C96.34683675 58.50884864 96.32614991 55.52658468 96.28979492 52.54345703 C96.24437796 48.73474551 96.24334717 44.92762042 96.25683022 41.11871243 C96.26353759 38.17163688 96.25019899 35.22491793 96.23057175 32.27791023 C96.22291815 30.87421603 96.22055025 29.47048199 96.22374344 28.06677055 C96.22704728 19.38390465 96.08251607 13.411552 90.05493164 6.82641602 C84.2800976 2.3854431 80.67828766 1.2332788 73.39575195 1.22705078 C72.1559407 1.21456551 72.1559407 1.21456551 70.89108276 1.201828 C68.15919272 1.17773827 65.42754163 1.16895628 62.69555664 1.16235352 C60.79229665 1.15338496 58.88903737 1.14426307 56.98577881 1.13499451 C52.99448942 1.11850374 49.00328391 1.11080449 45.01196289 1.10791016 C39.90972157 1.10253254 34.80827428 1.06487856 29.70625687 1.01916599 C25.77359172 0.98934725 21.84111644 0.98218552 17.90834808 0.98118401 C16.02814861 0.97698969 14.14794817 0.96458717 12.26786041 0.94366646 C9.63021919 0.91665748 6.99440067 0.92160557 4.35668945 0.93408203 C3.58757233 0.91924774 2.8184552 0.90441345 2.02603149 0.88912964 C-6.64340253 1.00526754 -12.47689289 5.69523297 -17.38256836 12.53344727 Z " fill="#874F22" transform="translate(25.382568359375,3.466552734375)"/>
<path d="M0 0 C2.70149409 2.11054226 3.85126649 3.42375923 4.71484375 6.76953125 C5.18953753 13.25701292 4.94571198 17.22640451 2 23 C1.41511438 25.62875402 1.41511438 25.62875402 2 28 C4.95088819 31.59268893 7.62784335 32.73684026 12 34.125 C17.4930565 36.29947425 17.4930565 36.29947425 19.63671875 39.26171875 C21.81872207 44.55855208 22.27278732 49.18229853 23 55 C3.2 55 -16.6 55 -37 55 C-37 41.70662461 -37 41.70662461 -34 36 C-31.15685868 34.16699671 -28.28327625 33.65992762 -25 33 C-21.41877099 31.67590575 -18.18716646 30.12477764 -15 28 C-15.48484276 23.35413108 -15.48484276 23.35413108 -17 19 C-17.48873739 13.86825743 -16.35004859 9.53569048 -14 5 C-10.18095221 0.64996161 -5.74169394 -0.73298221 0 0 Z " fill="#A0672F" transform="translate(76,25)"/>
<path d="M0 0 C-0.38993251 5.45905517 -2.20476043 8.11850498 -6 12 C-11.56476842 15.93605571 -16.36757371 16.14925073 -23.04150391 16.14526367 C-23.84842178 16.14862228 -24.65533966 16.1519809 -25.48670959 16.15544128 C-28.1500096 16.16492952 -30.81324665 16.16689297 -33.4765625 16.16796875 C-35.32693508 16.17118154 -37.1773074 16.17454563 -39.02767944 16.17805481 C-42.90289906 16.18403984 -46.7780964 16.18589522 -50.65332031 16.18530273 C-55.62807787 16.18520086 -60.60269352 16.19888214 -65.57741737 16.21607494 C-69.39658267 16.22716824 -73.21571328 16.22922281 -77.03489304 16.22869301 C-78.86978014 16.22987605 -80.70466805 16.23431583 -82.53953934 16.24202538 C-85.09889081 16.2517765 -87.6579291 16.2489673 -90.21728516 16.24291992 C-91.36124001 16.25134918 -91.36124001 16.25134918 -92.52830505 16.25994873 C-97.77168064 16.22831936 -97.77168064 16.22831936 -100 14 C-100.50188782 10.82137714 -100.29700651 9.44550976 -98.5 6.75 C-94.99187523 4.29431266 -92.24817445 4.28321163 -88 4 C-88 3.67 -88 3.34 -88 3 C-87.0486618 3.00444122 -86.09732361 3.00888245 -85.11715698 3.01345825 C-76.14219312 3.05403984 -67.16724793 3.08400146 -58.19221306 3.10362434 C-53.57829838 3.11405186 -48.96445791 3.12819226 -44.35058594 3.15087891 C-39.89614255 3.17264403 -35.44177045 3.18457639 -30.98727798 3.18975449 C-29.28966271 3.19344365 -27.59205125 3.20064767 -25.8944664 3.21146011 C-23.51272974 3.22602384 -21.13128589 3.22797591 -18.74951172 3.22705078 C-18.05107651 3.23424133 -17.3526413 3.24143188 -16.63304138 3.24884033 C-10.61705022 3.22363231 -5.67724332 0 0 0 Z " fill="#CACAC9" transform="translate(116,95)"/>
<path d="M0 0 C0.92597488 -0.00861557 1.85194977 -0.01723114 2.8059845 -0.02610779 C5.85670187 -0.04874826 8.90649918 -0.0420321 11.95727539 -0.03295898 C14.08427706 -0.03819556 16.2112764 -0.04447217 18.33827209 -0.05174255 C22.7926833 -0.06214336 27.24677499 -0.05758993 31.70117188 -0.04296875 C37.40210413 -0.02578532 43.10202811 -0.04927305 48.80284786 -0.08445835 C53.19444932 -0.1064469 57.58581009 -0.10498721 61.97744942 -0.09669304 C64.0789456 -0.09587425 66.18045958 -0.10272369 68.28190422 -0.11746407 C71.22371783 -0.13493564 74.16372685 -0.12034509 77.10546875 -0.09765625 C77.96854645 -0.10934845 78.83162415 -0.12104065 79.72085571 -0.13308716 C85.6859293 -0.03975115 89.32688537 1.34305104 93.61743164 5.53344727 C97.99865431 10.5051978 98.20304225 14.57477511 98.16674805 20.90014648 C98.17696991 21.82451508 98.18719177 22.74888367 98.19772339 23.70126343 C98.22545004 26.74715305 98.22360711 29.79213419 98.21899414 32.83813477 C98.22677202 34.96274144 98.23544218 37.08734501 98.2449646 39.21194458 C98.25987514 43.66215094 98.2593171 48.11203994 98.2487793 52.56225586 C98.23719491 58.25425394 98.27104352 63.94494934 98.31746864 69.6367321 C98.34699031 74.02409409 98.34868046 78.41114408 98.34244919 82.7985878 C98.34347339 84.89648136 98.35390739 86.9943929 98.37407303 89.09218979 C98.39886102 92.03163018 98.38519038 94.96855625 98.36206055 97.90795898 C98.38499176 99.19718262 98.38499176 99.19718262 98.40838623 100.51245117 C98.31211535 106.07162818 97.04114708 109.56303977 93.42311668 113.82699013 C87.82807078 119.11457118 82.04504886 120.12661406 74.57446289 120.05102539 C73.70832367 120.05803467 72.84218445 120.06504395 71.94979858 120.07226562 C69.10950903 120.08975575 66.27022991 120.07825502 63.42993164 120.06469727 C61.4427064 120.06739476 59.45548246 120.07127933 57.46826172 120.07629395 C53.31245299 120.08217683 49.1569892 120.07366501 45.0012207 120.05493164 C39.68840575 120.03214296 34.37639922 120.04527252 29.06361389 120.0692215 C24.96278857 120.08371215 20.86215323 120.0790585 16.76132202 120.06871033 C14.80300805 120.06605207 12.84467653 120.06928091 10.88638306 120.07862854 C8.14392756 120.08884809 5.40276053 120.07321808 2.66040039 120.05102539 C1.86016449 120.05912231 1.05992859 120.06721924 0.23544312 120.07556152 C-6.33412321 119.97763749 -11.35085442 118.40038176 -16.1876955 113.82643223 C-20.51369488 108.72563813 -21.247699 104.46820503 -21.14306641 97.92382812 C-21.15197403 96.99756119 -21.16088165 96.07129425 -21.1700592 95.11695862 C-21.1912473 92.07667088 -21.1690879 89.03852477 -21.14428711 85.99829102 C-21.14579067 83.8741484 -21.14922348 81.75000636 -21.15449524 79.62586975 C-21.15881913 75.18324049 -21.14204371 70.74133901 -21.10986328 66.29882812 C-21.07005933 60.61358135 -21.07939739 54.92969693 -21.10409832 49.2444067 C-21.11830094 44.86134229 -21.10817946 40.47859448 -21.09058571 36.09555244 C-21.08474953 33.99965738 -21.08601807 31.90372974 -21.09461021 29.80784416 C-21.1026292 26.87572422 -21.0782898 23.94558151 -21.04541016 21.01367188 C-21.05396027 20.15373627 -21.06251038 19.29380066 -21.07131958 18.4078064 C-20.95655163 12.4582019 -19.55824043 8.81577372 -15.38256836 4.53344727 C-10.40530153 0.14395688 -6.33290017 -0.0477721 0 0 Z M-17.38256836 12.53344727 C-18.62664301 16.26567121 -18.55422159 19.75256252 -18.57543945 23.64160156 C-18.58361694 24.46799637 -18.59179443 25.29439117 -18.60021973 26.14582825 C-18.62504838 28.88310018 -18.64158493 31.62032027 -18.65600586 34.35766602 C-18.66132954 35.29372995 -18.66665321 36.22979389 -18.67213821 37.1942234 C-18.69886119 42.15063279 -18.71823721 47.10701709 -18.73266602 52.06347656 C-18.7459959 56.15973284 -18.77383216 60.25548986 -18.81469727 64.3515625 C-18.86408709 69.30231124 -18.88879509 74.25260771 -18.8958931 79.2035923 C-18.90259444 81.08659615 -18.91778737 82.96959036 -18.94178391 84.85245323 C-18.9735351 87.49493897 -18.97345744 90.13569255 -18.96606445 92.77832031 C-18.98246979 93.54900848 -18.99887512 94.31969666 -19.01577759 95.11373901 C-18.94850841 101.01929695 -17.01635687 104.91559199 -13.38256836 109.53344727 C-7.81622401 114.8214744 -2.73606799 115.83298543 4.76904297 115.82397461 C5.57622269 115.83069183 6.3834024 115.83740906 7.21504211 115.84432983 C9.87657879 115.86328665 12.53786295 115.86723298 15.19946289 115.86938477 C17.05645347 115.87581477 18.91344305 115.88254328 20.77043152 115.88955688 C24.66159411 115.90152419 28.55266796 115.90523832 32.44384766 115.90405273 C37.41704153 115.90384968 42.38966307 115.93113981 47.36272144 115.96559715 C51.19844651 115.98789403 55.03403451 115.99188941 58.86981773 115.99083328 C60.70255186 115.9931855 62.53528998 116.00198758 64.36795998 116.01749802 C66.93825337 116.0372129 69.50732132 116.03129875 72.07763672 116.01928711 C72.82648132 116.03052612 73.57532593 116.04176514 74.34686279 116.05334473 C80.37353851 115.98219294 85.69224042 114.29594412 90.14999104 110.08612633 C94.93474622 104.55203479 95.91633538 100.49317679 95.90795898 93.29589844 C95.91467621 92.46775131 95.92139343 91.63960419 95.92831421 90.78636169 C95.94730551 88.04965201 95.95121914 85.31318749 95.95336914 82.57641602 C95.95979691 80.67076009 95.96652525 78.76510515 95.97354126 76.85945129 C95.9855173 72.86395989 95.98922181 68.86855496 95.98803711 64.87304688 C95.98783405 59.76184873 96.01512168 54.65120739 96.04958153 49.54014111 C96.07185883 45.6032305 96.07587437 41.66645364 96.07481766 37.72948647 C96.07717292 35.84568681 96.08599222 33.96188342 96.10148239 32.07814598 C96.12115674 29.43809841 96.11529869 26.799248 96.10327148 24.15917969 C96.1145105 23.38646729 96.12574951 22.61375488 96.1373291 21.81762695 C96.06633282 15.66110689 94.28592889 11.44878051 90.05493164 6.82641602 C84.2800976 2.3854431 80.67828766 1.2332788 73.39575195 1.22705078 C72.1559407 1.21456551 72.1559407 1.21456551 70.89108276 1.201828 C68.15919272 1.17773827 65.42754163 1.16895628 62.69555664 1.16235352 C60.79229665 1.15338496 58.88903737 1.14426307 56.98577881 1.13499451 C52.99448942 1.11850374 49.00328391 1.11080449 45.01196289 1.10791016 C39.90972157 1.10253254 34.80827428 1.06487856 29.70625687 1.01916599 C25.77359172 0.98934725 21.84111644 0.98218552 17.90834808 0.98118401 C16.02814861 0.97698969 14.14794817 0.96458717 12.26786041 0.94366646 C9.63021919 0.91665748 6.99440067 0.92160557 4.35668945 0.93408203 C3.58757233 0.91924774 2.8184552 0.90441345 2.02603149 0.88912964 C-6.64340253 1.00526754 -12.47689289 5.69523297 -17.38256836 12.53344727 Z " fill="#010100" transform="translate(25.382568359375,3.466552734375)"/>
<path d="M0 0 C2 2 2 2 2.5 5.625 C2.3713386 10.04773579 0.68353549 12.65880229 -1.90625 16.140625 C-7.40183785 21.02103511 -13.10132217 22.59509436 -20.30859375 22.49829102 C-21.09670441 22.50380981 -21.88481506 22.50932861 -22.69680786 22.51501465 C-24.39364135 22.52428025 -26.09054441 22.52448518 -27.78738403 22.51642036 C-30.47896713 22.50371044 -33.16953669 22.5151525 -35.86108398 22.53245544 C-40.60581515 22.55907947 -45.350295 22.56475408 -50.09509277 22.56335449 C-57.68806105 22.56112098 -65.28071843 22.57539284 -72.87356567 22.61894035 C-75.51475623 22.6287293 -78.15545098 22.620088 -80.79663086 22.61024475 C-82.42822589 22.61639291 -84.05981827 22.62330595 -85.69140625 22.63110352 C-86.77955124 22.61952461 -86.77955124 22.61952461 -87.88967896 22.60771179 C-93.16595626 22.65943018 -97.14174788 23.93853547 -102 26 C-102.86013727 29.26276567 -102.86013727 29.26276567 -103 33 C-101.30252228 35.85157455 -101.30252228 35.85157455 -99 38 C-98.34 38.66 -97.68 39.32 -97 40 C-97.66 40 -98.32 40 -99 40 C-99 40.99 -99 41.98 -99 43 C-101.75504918 42.91896914 -103.51587351 42.40884366 -105.6328125 40.62109375 C-109.29903357 36.66263767 -111.10144112 33.57926156 -111 28 C-109.35185604 23.33025878 -107.22175909 20.59062489 -103 18 C-97.92818784 17.0436451 -92.93443973 16.84962597 -87.7890625 16.84228516 C-86.99949158 16.83720444 -86.20992065 16.83212372 -85.39642334 16.82688904 C-83.69355348 16.81624584 -81.99067017 16.80760232 -80.28778076 16.80076981 C-77.5884286 16.78890171 -74.88923081 16.76943134 -72.18994141 16.74765015 C-64.51925812 16.68628329 -56.84859503 16.63197178 -49.17773438 16.59863281 C-44.47516961 16.57765096 -39.77289449 16.54232852 -35.07049561 16.49787521 C-33.2844382 16.48375324 -31.49832964 16.47500139 -29.71221924 16.47182083 C-27.21148455 16.46689399 -24.71151565 16.44369381 -22.2109375 16.41650391 C-21.48034119 16.41951004 -20.74974487 16.42251617 -19.99700928 16.4256134 C-14.89210545 16.3434795 -11.46234299 15.30558183 -7 13 C-4.98286172 10.95770138 -4.98286172 10.95770138 -3.625 8.5625 C-3.14289063 7.80066406 -2.66078125 7.03882812 -2.1640625 6.25390625 C-1.07593721 4.14703279 -0.45391982 2.31710233 0 0 Z " fill="#985B24" transform="translate(119,74)"/>
<path d="M0 0 C2.14576637 -0.02685938 4.29162645 -0.04633088 6.4375 -0.0625 C7.63246094 -0.07410156 8.82742187 -0.08570313 10.05859375 -0.09765625 C13 0 13 0 14 1 C14.09268999 2.35094982 14.11747326 3.70667091 14.11352539 5.06079102 C14.11344986 5.92160782 14.11337433 6.78242462 14.11329651 7.66932678 C14.10813522 8.60473801 14.10297394 9.54014923 14.09765625 10.50390625 C14.0962413 11.45692123 14.09482635 12.40993622 14.09336853 13.39183044 C14.08775152 16.44875165 14.07519616 19.50560077 14.0625 22.5625 C14.05748719 24.62955624 14.05292391 26.69661362 14.04882812 28.76367188 C14.03777656 33.84247588 14.02050055 38.9212257 14 44 C13.236875 43.21625 12.47375 42.4325 11.6875 41.625 C9.09108195 38.92742283 9.09108195 38.92742283 6 37 C5.57847656 37.5053125 5.15695313 38.010625 4.72265625 38.53125 C3.90087891 39.50578125 3.90087891 39.50578125 3.0625 40.5 C2.24458984 41.47453125 2.24458984 41.47453125 1.41015625 42.46875 C0.94480469 42.9740625 0.47945313 43.479375 0 44 C-0.33 44 -0.66 44 -1 44 C-1.02487171 39.01953488 -1.04294081 34.03910658 -1.05493164 29.05859375 C-1.05993487 27.36718109 -1.06673952 25.67577269 -1.07543945 23.984375 C-1.08768185 21.54165589 -1.09326855 19.09899438 -1.09765625 16.65625 C-1.10539818 15.53700134 -1.10539818 15.53700134 -1.11329651 14.3951416 C-1.11380862 9.51244027 -0.69035046 4.83484201 0 0 Z " fill="#DE3433" transform="translate(90,6)"/>
<path d="M0 0 C0 1.32 0 2.64 0 4 C-0.60328125 4.12117188 -1.2065625 4.24234375 -1.828125 4.3671875 C-2.62734375 4.53476563 -3.4265625 4.70234375 -4.25 4.875 C-5.43335937 5.11863281 -5.43335937 5.11863281 -6.640625 5.3671875 C-8.96592521 5.86730266 -8.96592521 5.86730266 -10.637146 7.02536011 C-14.09323283 8.45094124 -17.48703431 8.26134923 -21.16503906 8.22705078 C-22.39486511 8.22748886 -22.39486511 8.22748886 -23.64953613 8.22793579 C-26.35500737 8.22654432 -29.06020197 8.2109917 -31.765625 8.1953125 C-33.64320729 8.19158172 -35.52079153 8.18873506 -37.39837646 8.18673706 C-42.33692818 8.17910571 -47.27536201 8.15946145 -52.21386719 8.1373291 C-57.25454107 8.11685998 -62.29523402 8.10773306 -67.3359375 8.09765625 C-77.22401009 8.07621513 -87.11199524 8.04208514 -97 8 C-97.33 7.34 -97.66 6.68 -98 6 C-94.7 5.34 -91.4 4.68 -88 4 C-88 3.67 -88 3.34 -88 3 C-87.0486618 3.00444122 -86.09732361 3.00888245 -85.11715698 3.01345825 C-76.14219312 3.05403984 -67.16724793 3.08400146 -58.19221306 3.10362434 C-53.57829838 3.11405186 -48.96445791 3.12819226 -44.35058594 3.15087891 C-39.89614255 3.17264403 -35.44177045 3.18457639 -30.98727798 3.18975449 C-29.28966271 3.19344365 -27.59205125 3.20064767 -25.8944664 3.21146011 C-23.51272974 3.22602384 -21.13128589 3.22797591 -18.74951172 3.22705078 C-18.05107651 3.23424133 -17.3526413 3.24143188 -16.63304138 3.24884033 C-10.61705022 3.22363231 -5.67724332 0 0 0 Z " fill="#B7B7B7" transform="translate(116,95)"/>
<path d="M0 0 C0.5259375 0.2784375 1.051875 0.556875 1.59375 0.84375 C4.07936898 2.08264324 4.07936898 2.08264324 7.09375 3.15625 C16.04225352 6.68639359 16.04225352 6.68639359 18.703125 10.3359375 C20.86810114 15.58681247 21.28002225 20.24017803 22 26 C2.2 26 -17.6 26 -38 26 C-38 16.96650718 -38 16.96650718 -36.5625 12.0625 C-36.29566406 11.12535156 -36.02882812 10.18820313 -35.75390625 9.22265625 C-35 7 -35 7 -34 6 C-32.33382885 5.95936168 -30.66611905 5.957279 -29 6 C-29.99 6.66 -30.98 7.32 -32 8 C-32.29517751 9.93505257 -32.57888979 11.87427528 -32.75 13.82421875 C-33.11757459 17.02326639 -34.04095036 19.93104116 -35 23 C-33.80375 22.814375 -32.6075 22.62875 -31.375 22.4375 C-27.69504534 21.96287687 -24.65701483 22.33508821 -21 23 C-20.39800781 22.84789063 -19.79601562 22.69578125 -19.17578125 22.5390625 C-16.54204903 21.88653997 -14.14876071 21.86762242 -11.4375 21.875 C-10.48746094 21.87242188 -9.53742188 21.86984375 -8.55859375 21.8671875 C-6 22 -6 22 -3 23 C-1.15589242 22.7652954 0.68780821 22.52600647 2.52734375 22.2578125 C7.3343674 21.75660624 12.17295795 21.92759437 17 22 C16.97841747 17.04680826 16.86657789 13.95112207 13.4375 10.1875 C10.42151485 8.05513277 7.13224959 6.51879489 3.734375 5.08984375 C1.55931596 3.72308368 0.95518362 2.34409859 0 0 Z " fill="#814D1F" transform="translate(77,54)"/>
<path d="M0 0 C0.495 1.98 0.495 1.98 1 4 C-5.05220057 6.49208259 -10.12616655 8.25239017 -16.73974609 8.22705078 C-17.38435791 8.22734283 -18.02896973 8.22763489 -18.69311523 8.22793579 C-20.80336423 8.22655315 -22.91325092 8.21104311 -25.0234375 8.1953125 C-26.49459643 8.19157856 -27.96575785 8.18873339 -29.43692017 8.18673706 C-33.29371098 8.17913056 -37.15034921 8.159508 -41.00708008 8.1373291 C-44.94870948 8.11680613 -48.89036373 8.10772159 -52.83203125 8.09765625 C-60.55475677 8.07625903 -68.27735694 8.04215949 -76 8 C-76 8.33 -76 8.66 -76 9 C-76.55985596 9.0093457 -77.11971191 9.01869141 -77.6965332 9.02832031 C-80.23608146 9.08204507 -82.77379111 9.16568187 -85.3125 9.25 C-86.19357422 9.26417969 -87.07464844 9.27835938 -87.98242188 9.29296875 C-92.9818606 9.3171413 -92.9818606 9.3171413 -96.98046875 11.921875 C-97.31691406 12.60765625 -97.65335938 13.2934375 -98 14 C-98.66 14.66 -99.32 15.32 -100 16 C-99.8125 12.6875 -99.8125 12.6875 -99 9 C-93.86673391 4.83789236 -88.50748506 4.85360761 -82.14550781 4.8581543 C-81.35798126 4.85467987 -80.57045471 4.85120544 -79.75906372 4.84762573 C-78.05122836 4.84028326 -76.34338355 4.83492985 -74.63553619 4.83133507 C-71.92774282 4.82415141 -69.22012874 4.80847003 -66.51239014 4.78999329 C-58.81427487 4.73761747 -51.11625833 4.68957153 -43.41796875 4.67407227 C-38.70583139 4.66396412 -33.99414659 4.63456832 -29.28218842 4.59275246 C-27.49137553 4.58047819 -25.70049863 4.57531464 -23.90964508 4.57755089 C-21.39663276 4.57991649 -18.88490795 4.5576436 -16.37207031 4.5300293 C-15.64035614 4.53663071 -14.90864197 4.54323212 -14.15475464 4.55003357 C-8.54834698 4.4494855 -4.87301093 2.75677186 0 0 Z " fill="#797878" transform="translate(115,91)"/>
<path d="M0 0 C0.33 0 0.66 0 1 0 C1.18194291 4.63954425 0.85437682 7.77614168 -1 12 C-1.37125 13.918125 -1.37125 13.918125 -1.75 15.875 C-2.88934507 20.54719801 -5.24982181 23.99529334 -9 27 C-14.17730821 29.63030279 -18.31248713 30.41106414 -24.13842773 30.2487793 C-24.91973557 30.23946381 -25.7010434 30.23014832 -26.50602722 30.22055054 C-29.06567674 30.18641915 -31.62434345 30.13048689 -34.18359375 30.07421875 C-35.96718812 30.04616 -37.75080455 30.01947235 -39.53443909 29.99409485 C-44.21180698 29.92388161 -48.88864362 29.83512599 -53.56561279 29.74243164 C-58.34499224 29.6510147 -63.12464093 29.57723884 -67.90429688 29.50195312 C-77.2698774 29.35184512 -86.63499139 29.18213576 -96 29 C-96 28.67 -96 28.34 -96 28 C-94.6393618 27.99120064 -94.6393618 27.99120064 -93.25123596 27.98222351 C-84.67435642 27.92415671 -76.09773343 27.85200031 -67.52110386 27.76428509 C-63.11247675 27.71968678 -58.70393981 27.68040786 -54.29516602 27.65356445 C-50.03504318 27.62742575 -45.7752693 27.58694985 -41.51536369 27.53681374 C-39.89564311 27.52021612 -38.27586228 27.50865782 -36.6560688 27.50238609 C-20.42557158 27.4354213 -20.42557158 27.4354213 -7 19 C-5.27427752 16.1356565 -4.77630562 13.94208472 -4.625 10.625 C-4.21358316 6.0156076 -2.91990484 3.55863403 0 0 Z " fill="#633C19" transform="translate(120,84)"/>
<path d="M0 0 C0 1.32 0 2.64 0 4 C-4.98283716 5.14051606 -9.94468132 6.22225866 -15 7 C-15 6.67 -15 6.34 -15 6 C-16.12847099 5.9845388 -16.12847099 5.9845388 -17.27973938 5.96876526 C-24.41371072 5.87027034 -31.54760664 5.76768846 -38.68145466 5.66066074 C-42.34791199 5.60579388 -46.01437762 5.55243745 -49.6809082 5.50268555 C-53.22768854 5.45450043 -56.77438633 5.40214842 -60.3210659 5.34705925 C-62.31428947 5.3171416 -64.30757432 5.29139934 -66.30085754 5.26576233 C-73.57895919 5.14873813 -80.76320668 4.7942943 -88 4 C-88 3.67 -88 3.34 -88 3 C-87.0486618 3.00444122 -86.09732361 3.00888245 -85.11715698 3.01345825 C-76.14219312 3.05403984 -67.16724793 3.08400146 -58.19221306 3.10362434 C-53.57829838 3.11405186 -48.96445791 3.12819226 -44.35058594 3.15087891 C-39.89614255 3.17264403 -35.44177045 3.18457639 -30.98727798 3.18975449 C-29.28966271 3.19344365 -27.59205125 3.20064767 -25.8944664 3.21146011 C-23.51272974 3.22602384 -21.13128589 3.22797591 -18.74951172 3.22705078 C-18.05107651 3.23424133 -17.3526413 3.24143188 -16.63304138 3.24884033 C-10.61705022 3.22363231 -5.67724332 0 0 0 Z " fill="#919191" transform="translate(116,95)"/>
<path d="M0 0 C4.29 0 8.58 0 13 0 C13 3.63 13 7.26 13 11 C7.70769231 13.21538462 7.70769231 13.21538462 4.125 12.125 C3.42375 11.75375 2.7225 11.3825 2 11 C1.67 12.98 1.34 14.96 1 17 C0.67 17 0.34 17 0 17 C0 11.39 0 5.78 0 0 Z " fill="#AF1A19" transform="translate(90,6)"/>
<path d="M0 0 C0.82654083 -0.00832352 1.65308167 -0.01664703 2.50466919 -0.02522278 C5.23655923 -0.04931251 7.96821032 -0.05809451 10.70019531 -0.06469727 C12.60345531 -0.07366582 14.50671459 -0.08278771 16.40997314 -0.09205627 C20.40126253 -0.10854705 24.39246804 -0.1162463 28.38378906 -0.11914062 C33.48603038 -0.12451824 38.58747767 -0.16217222 43.68949509 -0.20788479 C47.62216024 -0.23770353 51.55463552 -0.24486526 55.48740387 -0.24586678 C57.36760334 -0.25006109 59.24780379 -0.26246361 61.12789154 -0.28338432 C63.76553277 -0.31039331 66.40135128 -0.30544521 69.0390625 -0.29296875 C69.80817963 -0.30780304 70.57729675 -0.32263733 71.36972046 -0.33792114 C77.9730029 -0.24946192 82.56899244 2.34629921 87.38090134 6.78452396 C89.61726977 9.22006243 90.73058772 10.86725666 91.09082031 14.18139648 C90.98769531 14.88264648 90.88457031 15.58389648 90.77832031 16.30639648 C89.48598178 14.36788868 88.2513489 12.38907588 87.09082031 10.36889648 C83.67994316 5.85178891 79.41406357 3.31726009 73.77832031 2.30639648 C71.26795288 2.20752794 68.78541294 2.15951683 66.27514648 2.16113281 C65.52502792 2.1577742 64.77490936 2.15441559 64.00205994 2.1509552 C61.5251194 2.14146573 59.04824664 2.13950299 56.57128906 2.13842773 C54.84499585 2.13521337 53.11870292 2.13184917 51.39241028 2.12834167 C47.77356332 2.12235515 44.15474023 2.12050125 40.53588867 2.12109375 C35.90912993 2.12119526 31.28252505 2.10755283 26.65580273 2.09032154 C23.08949589 2.07917675 19.52322593 2.07717532 15.95690346 2.07770348 C14.25174747 2.07652672 12.54659042 2.07212211 10.84145164 2.06437111 C8.45075234 2.05452264 6.06038288 2.05746844 3.66967773 2.06347656 C2.97177124 2.05785706 2.27386475 2.05223755 1.55480957 2.04644775 C-5.51399535 2.09136209 -11.03339379 3.39855847 -16.22167969 8.30639648 C-17.59536314 9.93996599 -18.94105484 11.59889669 -20.22167969 13.30639648 C-20.13908298 10.49810843 -19.6639245 8.78239156 -17.73730469 6.70874023 C-11.86635836 1.60302409 -7.87127941 0.00673151 0 0 Z " fill="#E4BC95" transform="translate(29.2216796875,4.693603515625)"/>
<path d="M0 0 C3.68707686 -0.146259 7.37339982 -0.23438838 11.0625 -0.3125 C12.62000977 -0.3753418 12.62000977 -0.3753418 14.20898438 -0.43945312 C19.94396697 -0.53048459 23.92116516 -0.28551718 28.49780273 3.33129883 C28.99352783 3.88197021 29.48925293 4.4326416 30 5 C30.71841064 5.77512939 31.43682129 6.55025879 32.17700195 7.34887695 C35.39039147 12.35599313 34.36759872 18.57598594 34.171875 24.2734375 C34.13009125 26.19175888 34.13009125 26.19175888 34.08746338 28.14883423 C34.01008154 31.53282962 33.91495993 34.91536499 33.81109619 38.29858398 C33.70932767 41.75729023 33.63106918 45.21652152 33.55078125 48.67578125 C33.38877174 55.45120975 33.2033373 62.22569263 33 69 C32.67 69 32.34 69 32 69 C31.99635437 68.33902817 31.99270874 67.67805634 31.98895264 66.99705505 C31.94706159 60.10209303 31.87766897 53.20779257 31.79248047 46.31323242 C31.76429826 43.74201075 31.74307013 41.17070288 31.72900391 38.59936523 C31.70753742 34.89782674 31.66086435 31.1973216 31.609375 27.49609375 C31.60814636 26.35103867 31.60691772 25.20598358 31.60565186 24.02622986 C31.48606484 17.47279399 30.93319032 13.31724173 27 8 C22.9327487 4.23779255 19.26004755 1.82543061 13.671875 1.5859375 C12.87265625 1.54726562 12.0734375 1.50859375 11.25 1.46875 C10.425 1.4378125 9.6 1.406875 8.75 1.375 C7.90953125 1.33632812 7.0690625 1.29765625 6.203125 1.2578125 C4.13576618 1.16384164 2.06791373 1.08084436 0 1 C0 0.67 0 0.34 0 0 Z " fill="#120B08" transform="translate(89,4)"/>
<path d="M0 0 C0.33 0 0.66 0 1 0 C1.33 3.63 1.66 7.26 2 11 C3.98 8.69 5.96 6.38 8 4 C10.33333333 6.33333333 12.66666667 8.66666667 15 11 C15.33 8.03 15.66 5.06 16 2 C16.66 2.33 17.32 2.66 18 3 C18 4.65 18 6.3 18 8 C18.66 8 19.32 8 20 8 C20 8.66 20 9.32 20 10 C19.34 10 18.68 10 18 10 C18.061875 10.78375 18.12375 11.5675 18.1875 12.375 C18.0946875 13.674375 18.0946875 13.674375 18 15 C17.01 15.66 16.02 16.32 15 17 C15 16.34 15 15.68 15 15 C14.01 14.67 13.02 14.34 12 14 C10.8125 11.4375 10.8125 11.4375 10 9 C9.0925 9.825 8.185 10.65 7.25 11.5 C4.46375503 14.03294997 4.12741739 14 0 14 C0 9.38 0 4.76 0 0 Z " fill="#9E6735" transform="translate(88,38)"/>
<path d="M0 0 C0.495 1.98 0.495 1.98 1 4 C-3.52381127 6.04301154 -8.16371695 7.00956295 -13 8 C-13 7.67 -13 7.34 -13 7 C-37.75 6.67 -62.5 6.34 -88 6 C-88 5.67 -88 5.34 -88 5 C-87.0155188 4.99635437 -86.0310376 4.99270874 -85.01672363 4.98895264 C-75.71841676 4.95193889 -66.42043911 4.89409667 -57.12238312 4.81609726 C-52.34264291 4.77666407 -47.56308579 4.74445523 -42.78320312 4.72900391 C-38.16641887 4.71380988 -33.55013809 4.67931578 -28.93357849 4.63169098 C-27.17626838 4.61690544 -25.41888639 4.60896061 -23.66151428 4.60811615 C-21.19112076 4.60573614 -18.72210706 4.57857555 -16.25195312 4.54589844 C-15.53265625 4.5509288 -14.81335938 4.55595917 -14.07226562 4.56114197 C-8.60591935 4.44997555 -4.68890444 2.74869812 0 0 Z " fill="#555454" transform="translate(115,91)"/>
<path d="M0 0 C0.33 0 0.66 0 1 0 C1 14.19 1 28.38 1 43 C-0.65 41.35 -2.3 39.7 -4 38 C-4.99 37.34 -5.98 36.68 -7 36 C-7.42152344 36.5053125 -7.84304687 37.010625 -8.27734375 37.53125 C-9.09912109 38.50578125 -9.09912109 38.50578125 -9.9375 39.5 C-10.75541016 40.47453125 -10.75541016 40.47453125 -11.58984375 41.46875 C-12.05519531 41.9740625 -12.52054687 42.479375 -13 43 C-13.33 43 -13.66 43 -14 43 C-14 38.38 -14 33.76 -14 29 C-13.67 29 -13.34 29 -13 29 C-12.67 31.64 -12.34 34.28 -12 37 C-11.34 37 -10.68 37 -10 37 C-9.67 36.01 -9.34 35.02 -9 34 C-5.62537285 34.54723683 -3.91765 35.0549 -1 37 C-0.67 24.79 -0.34 12.58 0 0 Z " fill="#C3433F" transform="translate(103,7)"/>
<path d="M0 0 C2.67207435 2.67207435 3.09265348 5.12531667 4.125 8.75 C4.47820313 9.96171875 4.83140625 11.1734375 5.1953125 12.421875 C5.94639438 15.76163714 6.15669393 18.59451868 6 22 C5.01 22 4.02 22 3 22 C2.67 20.35 2.34 18.7 2 17 C1.34 17 0.68 17 0 17 C0 11.39 0 5.78 0 0 Z " fill="#724921" transform="translate(8,41)"/>
<path d="M0 0 C0 3.63 0 7.26 0 11 C-0.33 10.34 -0.66 9.68 -1 9 C-4.0318856 7.11813998 -5.24517355 7 -9 7 C-9.33 7.66 -9.66 8.32 -10 9 C-10.66 9 -11.32 9 -12 9 C-12.33 9.99 -12.66 10.98 -13 12 C-13 9.03 -13 6.06 -13 3 C-11.576875 2.87625 -10.15375 2.7525 -8.6875 2.625 C-5.5673657 2.35368397 -2.6100148 0 0 0 Z " fill="#C52020" transform="translate(103,35)"/>
<path d="M0 0 C-1.39034846 4.8662196 -3.79456444 7.25029214 -8 10 C-11.375 9.8125 -11.375 9.8125 -14 9 C-13.01 8.34 -12.02 7.68 -11 7 C-10.67 6.67 -10.34 6.34 -10 6 C-11.32 5.67 -12.64 5.34 -14 5 C-13.4225 4.731875 -12.845 4.46375 -12.25 4.1875 C-9.96004727 3.06360928 -9.96004727 3.06360928 -8 1.4375 C-5.19386918 -0.57940653 -3.19198431 -1.59599215 0 0 Z " fill="#BABABA" transform="translate(115,99)"/>
<path d="M0 0 C0.33 0.66 0.66 1.32 1 2 C0.113125 2.103125 -0.77375 2.20625 -1.6875 2.3125 C-5.26627517 3.05526466 -7.19812843 3.65248598 -10 6 C-10.96491265 7.95477994 -11.67131918 9.88597948 -12.32421875 11.96484375 C-13.03288123 14.09902382 -13.95482663 16.01194682 -15 18 C-15.56606361 7.20286069 -15.56606361 7.20286069 -12 3 C-8.04356869 -0.4618774 -5.12174436 -1.48261021 0 0 Z " fill="#9B703E" transform="translate(73,24)"/>
<path d="M0 0 C0.93972656 0.12568359 0.93972656 0.12568359 1.8984375 0.25390625 C3.12433594 0.40666016 3.12433594 0.40666016 4.375 0.5625 C5.59316406 0.71912109 5.59316406 0.71912109 6.8359375 0.87890625 C9.04899186 1.18237328 9.04899186 1.18237328 11 0 C11.33 1.65 11.66 3.3 12 5 C6.70769231 7.21538462 6.70769231 7.21538462 3.125 6.125 C2.42375 5.75375 1.7225 5.3825 1 5 C0.67 6.98 0.34 8.96 0 11 C-0.33 11 -0.66 11 -1 11 C-1.0270043 9.54176788 -1.04639787 8.08339325 -1.0625 6.625 C-1.07410156 5.81289063 -1.08570312 5.00078125 -1.09765625 4.1640625 C-1 2 -1 2 0 0 Z " fill="#C42020" transform="translate(91,12)"/>
<path d="M0 0 C19.058178 -0.91625856 19.058178 -0.91625856 24.51953125 3.5078125 C25.00808594 4.00023437 25.49664062 4.49265625 26 5 C26.77923828 5.73863281 26.77923828 5.73863281 27.57421875 6.4921875 C29.852812 8.9018779 30.95161531 10.55486083 31.3125 13.875 C31.209375 14.57625 31.10625 15.2775 31 16 C29.70766147 14.0614922 28.47302859 12.08267939 27.3125 10.0625 C23.87554165 5.51085246 19.64790518 3.08613561 14 2 C11.5861824 1.77882441 9.16885403 1.59427758 6.75 1.4375 C5.48671875 1.35371094 4.2234375 1.26992187 2.921875 1.18359375 C1.95765625 1.12300781 0.9934375 1.06242188 0 1 C0 0.67 0 0.34 0 0 Z " fill="#D39D80" transform="translate(89,5)"/>
<path d="M0 0 C0.33 0 0.66 0 1 0 C1 9.9 1 19.8 1 30 C0.67 30 0.34 30 0 30 C-0.33 27.03 -0.66 24.06 -1 21 C-1.66 21 -2.32 21 -3 21 C-2.01 14.07 -1.02 7.14 0 0 Z " fill="#B4672B" transform="translate(120,40)"/>
<path d="M0 0 C0.33 0 0.66 0 1 0 C1.52210131 6.13469039 0.08765722 10.67146781 -3 16 C-4.63671875 17.765625 -4.63671875 17.765625 -6 19 C-4.4203137 4.99067676 -4.4203137 4.99067676 0 0 Z " fill="#5A3717" transform="translate(120,84)"/>
<path d="M0 0 C0.33 0.99 0.66 1.98 1 3 C9.58 3 18.16 3 27 3 C27 3.33 27 3.66 27 4 C17.65190221 4.66433182 8.37877608 5.1598655 -1 5 C-0.67 3.35 -0.34 1.7 0 0 Z " fill="#7F4B1E" transform="translate(40,75)"/>
<path d="M0 0 C0.53238281 0.28230469 1.06476563 0.56460938 1.61328125 0.85546875 C4.06486292 2.07491782 4.06486292 2.07491782 6.98046875 3.11328125 C8.03878906 3.50902344 9.09710938 3.90476563 10.1875 4.3125 C11.78658203 4.89451172 11.78658203 4.89451172 13.41796875 5.48828125 C16 7 16 7 16.86328125 9.66796875 C16.90839844 10.43753906 16.95351562 11.20710938 17 12 C16.01 12 15.02 12 14 12 C13.443125 11.4225 12.88625 10.845 12.3125 10.25 C9.67427676 7.68308009 7.16134056 6.54366092 3.8046875 5.125 C1.57989857 3.73811859 0.96826038 2.39569579 0 0 Z " fill="#855223" transform="translate(77,54)"/>
<path d="M0 0 C1.73546076 2.60319113 2.65175233 4.52267237 3.625 7.4375 C3.88539062 8.19933594 4.14578125 8.96117187 4.4140625 9.74609375 C5 12 5 12 5 16 C5.66 16 6.32 16 7 16 C7.33 17.98 7.66 19.96 8 22 C7.01 22 6.02 22 5 22 C4.15583837 19.46148538 3.32452701 16.91989146 2.5 14.375 C2.26152344 13.66214844 2.02304688 12.94929688 1.77734375 12.21484375 C0.42618192 8.00693976 -0.28250044 4.47763202 0 0 Z " fill="#7B5027" transform="translate(8,35)"/>
<path d="M0 0 C0.66 0.33 1.32 0.66 2 1 C2 2.65 2 4.3 2 6 C2.66 6 3.32 6 4 6 C4 6.66 4 7.32 4 8 C3.34 8 2.68 8 2 8 C2.061875 8.78375 2.12375 9.5675 2.1875 10.375 C2.125625 11.24125 2.06375 12.1075 2 13 C1.01 13.66 0.02 14.32 -1 15 C-1 14.34 -1 13.68 -1 13 C-1.99 12.67 -2.98 12.34 -4 12 C-5.1875 9.4375 -5.1875 9.4375 -6 7 C-4 8.375 -4 8.375 -2 10 C-2 10.66 -2 11.32 -2 12 C-1.34 12 -0.68 12 0 12 C0 8.04 0 4.08 0 0 Z " fill="#9D6934" transform="translate(104,40)"/>
<path d="M0 0 C0.99 0.33 1.98 0.66 3 1 C5.61105815 11.91897045 5.61105815 11.91897045 4 17 C2.44921875 18.66015625 2.44921875 18.66015625 1 20 C1.20625 18.72125 1.4125 17.4425 1.625 16.125 C2.24307394 10.79093721 1.24149778 6.17119738 0 1 C0 0.67 0 0.34 0 0 Z " fill="#966A39" transform="translate(76,26)"/>
<path d="M0 0 C0 1.32 0 2.64 0 4 C-4.98283716 5.14051606 -9.94468132 6.22225866 -15 7 C-15 6.01 -15 5.02 -15 4 C-14.30132812 3.79503906 -13.60265625 3.59007813 -12.8828125 3.37890625 C-11.97273438 3.10949219 -11.06265625 2.84007813 -10.125 2.5625 C-9.22007813 2.29566406 -8.31515625 2.02882813 -7.3828125 1.75390625 C-1.83937824 0 -1.83937824 0 0 0 Z " fill="#929191" transform="translate(116,95)"/>
<path d="M0 0 C3.63 0.33 7.26 0.66 11 1 C11 2.32 11 3.64 11 5 C7.37 5 3.74 5 0 5 C0 3.35 0 1.7 0 0 Z " fill="#A50A09" transform="translate(90,6)"/>
<path d="M0 0 C0.33 1.32 0.66 2.64 1 4 C-3.52381127 6.04301154 -8.16371695 7.00956295 -13 8 C-13.66 7.01 -14.32 6.02 -15 5 C-14.33613281 4.89042969 -13.67226562 4.78085938 -12.98828125 4.66796875 C-8.09120522 3.78863977 -4.09838572 3.00548286 0 0 Z " fill="#64615F" transform="translate(115,91)"/>
<path d="M0 0 C0.99 0.33 1.98 0.66 3 1 C3 1.66 3 2.32 3 3 C3.804375 3.268125 4.60875 3.53625 5.4375 3.8125 C6.283125 4.204375 7.12875 4.59625 8 5 C8.33 5.99 8.66 6.98 9 8 C6.03 7.67 3.06 7.34 0 7 C0 4.69 0 2.38 0 0 Z " fill="#B28046" transform="translate(27,30)"/>
<path d="M0 0 C-1 2 -1 2 -2.9609375 2.8515625 C-3.75757813 3.10679688 -4.55421875 3.36203125 -5.375 3.625 C-6.16648437 3.88539062 -6.95796875 4.14578125 -7.7734375 4.4140625 C-10 5 -10 5 -13 5 C-13.66 6.32 -14.32 7.64 -15 9 C-14.25 4.25 -14.25 4.25 -12 2 C-9.6875 1.11328125 -9.6875 1.11328125 -7 0.3125 C-6.113125 0.04050781 -5.22625 -0.23148438 -4.3125 -0.51171875 C-2 -1 -2 -1 0 0 Z " fill="#925B29" transform="translate(59,57)"/>
<path d="M0 0 C0.33 0.99 0.66 1.98 1 3 C-1.94553377 8.66448802 -1.94553377 8.66448802 -5.75 9.875 C-6.4925 9.91625 -7.235 9.9575 -8 10 C-6.44303593 6.17836093 -3.96591316 3.81381505 -1 1 C-0.67 0.67 -0.34 0.34 0 0 Z " fill="#673E19" transform="translate(117,99)"/>
<path d="M0 0 C1.66666667 1.66666667 3.33333333 3.33333333 5 5 C5.598125 5.556875 6.19625 6.11375 6.8125 6.6875 C8 8 8 8 8 10 C7.34 10 6.68 10 6 10 C2 5.52941176 2 5.52941176 2 3 C1.01 3 0.02 3 -1 3 C-1 3.66 -1 4.32 -1 5 C-1.99 5.33 -2.98 5.66 -4 6 C-2.84826645 3.53199953 -1.95216435 1.95216435 0 0 Z " fill="#84532B" transform="translate(96,42)"/>
<path d="M0 0 C0.99 0.33 1.98 0.66 3 1 C1.54634731 2.17249353 0.08692581 3.33783816 -1.375 4.5 C-2.18710937 5.1496875 -2.99921875 5.799375 -3.8359375 6.46875 C-6 8 -6 8 -8 8 C-6.49860488 3.79609368 -3.82724957 2.10889262 0 0 Z " fill="#9A6D3E" transform="translate(20,7)"/>
<path d="M0 0 C1.1446875 0.2475 1.1446875 0.2475 2.3125 0.5 C5.03596236 1.09145396 5.03596236 1.09145396 8 1 C8 1.99 8 2.98 8 4 C5.36 4 2.72 4 0 4 C-0.33 3.34 -0.66 2.68 -1 2 C-0.67 1.34 -0.34 0.68 0 0 Z " fill="#D52828" transform="translate(93,17)"/>
<path d="M0 0 C1.32 0.66 2.64 1.32 4 2 C3.401875 2.226875 2.80375 2.45375 2.1875 2.6875 C-0.55893949 4.33536369 -1.47172214 6.23454483 -3 9 C-3.33 9 -3.66 9 -4 9 C-3.6875 5.625 -3.6875 5.625 -3 2 C-2.01 1.34 -1.02 0.68 0 0 Z " fill="#655F5A" transform="translate(19,98)"/>
<path d="M0 0 C0.33 0 0.66 0 1 0 C1 3.63 1 7.26 1 11 C0.01 10.01 -0.98 9.02 -2 8 C-1.55555556 1.55555556 -1.55555556 1.55555556 0 0 Z " fill="#945321" transform="translate(120,91)"/>
<path d="M0 0 C0.515625 0.268125 1.03125 0.53625 1.5625 0.8125 C4.66401415 2.32349407 7.82262806 3.65572726 11 5 C10.67 5.66 10.34 6.32 10 7 C3.47692308 5.64615385 3.47692308 5.64615385 1.0625 2.375 C0.711875 1.59125 0.36125 0.8075 0 0 Z " fill="#8D5928" transform="translate(77,54)"/>
<path d="M0 0 C0.33 0 0.66 0 1 0 C1 3.63 1 7.26 1 11 C0.01 11.33 -0.98 11.66 -2 12 C-1.34 8.04 -0.68 4.08 0 0 Z " fill="#8B5322" transform="translate(119,49)"/>
<path d="M0 0 C2.31 0.66 4.62 1.32 7 2 C5.8125 3.5 5.8125 3.5 4 5 C1.3125 5.1875 1.3125 5.1875 -1 5 C-0.34 4.34 0.32 3.68 1 3 C0.67 2.01 0.34 1.02 0 0 Z " fill="#BB843E" transform="translate(51,53)"/>
<path d="M0 0 C0.33 0.99 0.66 1.98 1 3 C3.31 3 5.62 3 8 3 C4.5647952 5.29013653 3.014669 5.17842973 -1 5 C-0.67 3.35 -0.34 1.7 0 0 Z " fill="#73441B" transform="translate(40,75)"/>
<path d="M0 0 C0.33 0 0.66 0 1 0 C1 2.97 1 5.94 1 9 C0.34 9 -0.32 9 -1 9 C-1.80967438 6.08517222 -2.21845993 4.53886783 -1.0625 1.6875 C-0.711875 1.130625 -0.36125 0.57375 0 0 Z " fill="#BB8D4C" transform="translate(57,32)"/>
<path d="M0 0 C0.66 0.33 1.32 0.66 2 1 C0.515 4.96 0.515 4.96 -1 9 C-1.33 9 -1.66 9 -2 9 C-2.25 3.375 -2.25 3.375 0 0 Z " fill="#3A2717" transform="translate(118,87)"/>
<path d="M0 0 C0.66 0 1.32 0 2 0 C1.34 1.98 0.68 3.96 0 6 C-0.99 5.67 -1.98 5.34 -3 5 C-1.625 2.5 -1.625 2.5 0 0 Z " fill="#9E6631" transform="translate(112,51)"/>
</svg>
